<svg width="16" height="10" viewBox="0 0 16 10" fill="none" xmlns="http://www.w3.org/2000/svg">
<path d="M0.21792 5.47779L4.97925 9.80212C5.26975 10.066 5.74088 10.066 6.03138 9.80212C6.32194 9.53823 6.32194 9.11044 6.03138 8.84655L2.54008 5.67568L15.256 5.67568C15.6669 5.67568 16 5.37314 16 5.00001C16 4.62693 15.6669 4.32433 15.256 4.32433L2.54008 4.32433L6.03126 1.15346C6.32182 0.889569 6.32182 0.461784 6.03126 0.197892C5.88604 0.0660538 5.69559 -1.39731e-07 5.5052 -1.39731e-07C5.3148 -1.39731e-07 5.12441 0.0660538 4.97913 0.197892L0.21792 4.52222C-0.0726401 4.78611 -0.0726401 5.2139 0.21792 5.47779Z" fill="#172735"/>
</svg>
